<svg width="110" height="20" viewBox="0 0 110 20" fill="none" xmlns="http://www.w3.org/2000/svg">
<path d="M1.26 13V0.76H4.302L9.018 7.402V0.76H12.294V13H9.234L4.536 6.556V13H1.26ZM21.2027 12.262C20.8307 12.466 20.3507 12.694 19.7627 12.946C19.1867 13.198 18.5327 13.324 17.8007 13.324C16.5647 13.324 15.6947 12.982 15.1907 12.298C14.6987 11.602 14.4527 10.732 14.4527 9.688V4.288H17.7287V9.616C17.7287 9.952 17.8127 10.21 17.9807 10.39C18.1607 10.57 18.4007 10.66 18.7007 10.66C18.8927 10.66 19.1327 10.606 19.4207 10.498C19.7087 10.39 19.9847 10.276 20.2487 10.156V4.288H23.5247V13H21.8867L21.2027 12.262ZM25.8694 13V0.76H29.9554C31.2994 0.76 32.4754 1.036 33.4834 1.588C34.4914 2.14 34.9954 3.04 34.9954 4.288V4.378C34.9834 4.81 34.8874 5.206 34.7074 5.566C34.5394 5.914 34.3174 6.226 34.0414 6.502C34.5214 6.838 34.9114 7.252 35.2114 7.744C35.5234 8.224 35.6794 8.758 35.6794 9.346C35.6794 10.75 35.1454 11.71 34.0774 12.226C33.0094 12.742 31.8154 13 30.4954 13H25.8694ZM29.8474 3.334H29.1454V5.404H29.8834C30.3874 5.404 30.8014 5.326 31.1254 5.17C31.4494 5.014 31.6114 4.774 31.6114 4.45C31.6114 4.078 31.4554 3.802 31.1434 3.622C30.8314 3.43 30.3994 3.334 29.8474 3.334ZM30.5314 7.978H29.1454V10.426H30.5674C31.0714 10.426 31.4854 10.33 31.8094 10.138C32.1334 9.946 32.2954 9.658 32.2954 9.274C32.2954 8.866 32.1394 8.548 31.8274 8.32C31.5154 8.092 31.0834 7.978 30.5314 7.978ZM37.2909 13V0.489999L40.5669 0.291999V13H37.2909ZM42.1826 8.59C42.1826 7.126 42.6626 5.992 43.6226 5.188C44.5946 4.372 45.7646 3.964 47.1326 3.964C48.5726 3.964 49.7546 4.36 50.6786 5.152C51.6146 5.944 52.0826 7.12 52.0826 8.68C52.0826 10.144 51.5966 11.266 50.6246 12.046C49.6526 12.814 48.4646 13.198 47.0606 13.198C45.6566 13.198 44.4926 12.82 43.5686 12.064C42.6446 11.308 42.1826 10.15 42.1826 8.59ZM45.5666 8.59C45.5666 9.178 45.6986 9.652 45.9626 10.012C46.2266 10.36 46.6046 10.534 47.0966 10.534C47.6126 10.534 48.0086 10.378 48.2846 10.066C48.5606 9.754 48.6986 9.292 48.6986 8.68C48.6986 8.092 48.5666 7.606 48.3026 7.222C48.0386 6.826 47.6606 6.628 47.1686 6.628C46.6526 6.628 46.2566 6.802 45.9806 7.15C45.7046 7.498 45.5666 7.978 45.5666 8.59ZM59.5229 13L57.9929 11.128L56.4989 13H52.8089L56.0129 8.662L52.8089 4.684L56.1929 4.234L57.8849 6.376L59.5769 4.27H63.1949L59.8649 8.842L63.1949 13H59.5229ZM64.9171 11.776C65.2291 11.932 65.6551 12.088 66.1951 12.244C66.7351 12.4 67.3051 12.478 67.9051 12.478C68.9371 12.478 69.7231 12.244 70.2631 11.776C70.8151 11.296 71.0911 10.744 71.0911 10.12C71.0911 8.8 69.9991 7.78 67.8151 7.06C65.6431 6.34 64.5571 5.11 64.5571 3.37C64.5571 2.542 64.8871 1.852 65.5471 1.3C66.2071 0.747999 67.1131 0.471999 68.2651 0.471999C68.8651 0.471999 69.4291 0.543999 69.9571 0.688C70.4851 0.831999 70.9291 0.993999 71.2891 1.174L70.8931 1.822C70.5811 1.678 70.2271 1.54 69.8311 1.408C69.4351 1.276 68.9251 1.21 68.3011 1.21C67.4371 1.21 66.7531 1.432 66.2491 1.876C65.7451 2.308 65.4931 2.836 65.4931 3.46C65.4931 4.828 66.5791 5.884 68.7511 6.628C70.9231 7.36 72.0091 8.542 72.0091 10.174C72.0091 11.074 71.6611 11.812 70.9651 12.388C70.2691 12.952 69.2551 13.234 67.9231 13.234C67.4071 13.234 66.7831 13.156 66.0511 13C65.3191 12.832 64.8511 12.658 64.6471 12.478L64.9171 11.776ZM77.4484 5.206H75.4864V10.786C75.4864 11.218 75.5764 11.614 75.7564 11.974C75.9484 12.322 76.2664 12.496 76.7104 12.496C76.8424 12.496 76.9804 12.478 77.1244 12.442C77.2804 12.394 77.3884 12.358 77.4484 12.334L77.6644 13.018C77.5444 13.042 77.3764 13.084 77.1604 13.144C76.9564 13.204 76.7284 13.234 76.4764 13.234C75.9124 13.234 75.4564 13.036 75.1084 12.64C74.7724 12.244 74.6044 11.668 74.6044 10.912V5.206H73.3084V4.54H74.6044V2.182L75.4864 1.786V4.54H77.0704L77.4484 5.206ZM85.6579 4.27V13H85.1359L84.7939 12.01C84.4219 12.346 83.9899 12.634 83.4979 12.874C83.0179 13.102 82.5439 13.216 82.0759 13.216C81.1159 13.216 80.4379 12.946 80.0419 12.406C79.6579 11.866 79.4659 11.164 79.4659 10.3V4.27H80.3479V10.354C80.3479 10.942 80.4979 11.446 80.7979 11.866C81.0979 12.274 81.5539 12.478 82.1659 12.478C82.5019 12.478 82.9159 12.37 83.4079 12.154C83.8999 11.926 84.3559 11.614 84.7759 11.218V4.27H85.6579ZM94.1376 5.818C93.7656 5.47 93.3516 5.212 92.8956 5.044C92.4396 4.864 92.0316 4.774 91.6716 4.774C90.6876 4.774 89.9736 5.152 89.5296 5.908C89.0976 6.652 88.8816 7.552 88.8816 8.608C88.8816 9.676 89.0976 10.594 89.5296 11.362C89.9736 12.118 90.6876 12.496 91.6716 12.496C92.0316 12.496 92.4396 12.406 92.8956 12.226C93.3516 12.046 93.7656 11.782 94.1376 11.434V5.818ZM95.0196 0.309999V13H94.5336L94.2456 12.226C93.8736 12.526 93.4596 12.772 93.0036 12.964C92.5596 13.144 92.1276 13.234 91.7076 13.234C90.4356 13.234 89.4936 12.808 88.8816 11.956C88.2696 11.092 87.9636 9.994 87.9636 8.662C87.9636 7.318 88.2696 6.214 88.8816 5.35C89.4936 4.474 90.4356 4.036 91.7076 4.036C92.1036 4.036 92.5176 4.132 92.9496 4.324C93.3936 4.504 93.7896 4.732 94.1376 5.008V0.471999L95.0196 0.309999ZM98.3952 2.2C98.1912 2.2 98.0232 2.134 97.8912 2.002C97.7712 1.87 97.7112 1.708 97.7112 1.516C97.7112 1.324 97.7712 1.162 97.8912 1.03C98.0232 0.897999 98.1912 0.831999 98.3952 0.831999C98.5872 0.831999 98.7492 0.897999 98.8812 1.03C99.0252 1.162 99.0972 1.324 99.0972 1.516C99.0972 1.708 99.0252 1.87 98.8812 2.002C98.7492 2.134 98.5872 2.2 98.3952 2.2ZM97.9632 13V4.27H98.8452V13H97.9632ZM104.692 13.234C103.432 13.234 102.538 12.79 102.01 11.902C101.482 11.014 101.218 9.91 101.218 8.59C101.23 7.306 101.53 6.226 102.118 5.35C102.706 4.474 103.624 4.036 104.872 4.036C106.156 4.036 107.068 4.48 107.608 5.368C108.16 6.244 108.436 7.354 108.436 8.698C108.436 10.018 108.124 11.104 107.5 11.956C106.888 12.808 105.952 13.234 104.692 13.234ZM107.518 8.698C107.518 7.654 107.326 6.736 106.942 5.944C106.57 5.14 105.892 4.738 104.908 4.738C103.948 4.738 103.246 5.122 102.802 5.89C102.358 6.658 102.136 7.552 102.136 8.572C102.136 9.64 102.322 10.57 102.694 11.362C103.066 12.142 103.738 12.532 104.71 12.532C105.682 12.532 106.39 12.154 106.834 11.398C107.29 10.642 107.518 9.742 107.518 8.698Z" fill="#F4F4F5"/>
<rect y="17" width="27.5" height="3" fill="#923AE4"/>
<rect x="27.5" y="17" width="27.5" height="3" fill="#1E90FF"/>
<rect x="55" y="17" width="27.5" height="3" fill="#1FFFCF"/>
<rect x="82.5" y="17" width="27.5" height="3" fill="#FA921C"/>
</svg>
